<?xml version="1.0" encoding="iso-8859-1"?>
<!-- Generator: Adobe Illustrator 19.0.0, SVG Export Plug-In . SVG Version: 6.00 Build 0)  -->
<svg version="1.1" id="Layer_1" xmlns="http://www.w3.org/2000/svg" xmlns:xlink="http://www.w3.org/1999/xlink" x="0px" y="0px"
	 viewBox="0 0 512 512" style="enable-background:new 0 0 512 512;" xml:space="preserve">
<g>
	<g>
		<path d="M423.363,21.316L397.19,1.743c-1.735-1.297-3.915-1.856-6.06-1.544c-2.145,0.309-4.079,1.458-5.377,3.194L154.268,312.98
			c-12.46-6.479-26.551-9.875-41.188-9.875c-8.243,0-16.578,1.078-24.773,3.205c-24.891,6.461-47.646,22.117-64.075,44.086
			C7.804,372.365-0.782,398.618,0.056,424.319c0.937,28.698,13.794,54.37,35.272,70.434c14.987,11.207,33.225,17.131,52.745,17.132
			c8.249,0,16.587-1.08,24.786-3.207c24.89-6.46,47.645-22.116,64.075-44.086l260.183-347.957
			C459.604,86.563,453.433,43.804,423.363,21.316z M424.031,106.85L163.849,454.806c-14.216,19.009-33.782,32.525-55.094,38.057
			c-6.86,1.78-13.816,2.683-20.677,2.683c-15.967,0-30.822-4.8-42.962-13.877c-17.482-13.073-27.953-34.171-28.727-57.88
			c-0.718-22.007,6.716-44.596,20.93-63.604c14.214-19.008,33.781-32.524,55.094-38.057c6.854-1.779,13.809-2.681,20.668-2.681
			c14.156,0,27.634,3.843,38.975,11.116c3.608,2.315,8.388,1.447,10.953-1.985L393.948,19.723l13.086,9.786L173.206,342.225
			c-2.702,3.613-1.963,8.733,1.65,11.436c1.469,1.098,3.184,1.628,4.886,1.628c2.488,0,4.946-1.133,6.549-3.278L419.731,39.817
			C437.134,57.738,439.458,86.22,424.031,106.85z"/>
	</g>
</g>
<g>
	<g>
		<path d="M168.439,391.735c-0.619-18.994-8.496-35.089-22.177-45.322c-9.318-6.969-20.737-10.652-33.022-10.652
			c-23.322,0-46.81,12.789-62.83,34.211c-25.186,33.68-23.17,77.912,4.496,98.602c9.318,6.969,20.737,10.652,33.021,10.652
			c23.322,0,46.81-12.789,62.83-34.211C162.758,428.969,169.037,410.046,168.439,391.735z M137.672,435.229
			c-12.758,17.059-31.818,27.658-49.745,27.658c-8.729,0-16.763-2.558-23.235-7.398c-20.449-15.294-20.987-49.265-1.196-75.73
			c12.758-17.059,31.818-27.658,49.745-27.658c8.729,0,16.764,2.558,23.235,7.398c9.626,7.198,15.178,18.836,15.633,32.769
			C152.586,406.884,147.458,422.141,137.672,435.229z"/>
	</g>
</g>
<g>
	<g>
		<path d="M487.768,350.396c-16.429-21.969-39.184-37.627-64.074-44.085c-27.798-7.217-56.052-2.138-77.531,13.924
			c-5.141,3.843-9.81,8.253-13.959,13.176l-11.727-15.681c-2.702-3.613-7.823-4.351-11.435-1.65
			c-3.613,2.703-4.353,7.823-1.65,11.436l18.317,24.493c1.608,2.149,4.209,3.366,6.847,3.271c2.682-0.1,5.143-1.51,6.585-3.772
			c4.543-7.125,10.197-13.244,16.809-18.188c17.482-13.076,40.679-17.154,63.639-11.194c21.312,5.532,40.878,19.046,55.094,38.056
			c14.215,19.009,21.648,41.598,20.93,63.604c-0.773,23.71-11.244,44.806-28.727,57.88c-17.483,13.073-40.681,17.153-63.64,11.194
			c-21.311-5.532-40.877-19.046-55.093-38.057l-65.2-87.185c-2.701-3.613-7.824-4.352-11.435-1.65
			c-3.613,2.703-4.353,7.823-1.65,11.436l65.2,87.185c16.429,21.969,39.184,37.627,64.074,44.086
			c8.288,2.151,16.617,3.209,24.796,3.209c19.248,0,37.661-5.861,52.735-17.135c21.48-16.064,34.337-41.736,35.273-70.434
			C512.783,398.619,504.197,372.366,487.768,350.396z"/>
	</g>
</g>
<g>
	<g>
		<path d="M221.735,185.694L85.407,3.394c-2.702-3.612-7.822-4.353-11.436-1.65C43.899,24.231,37.728,66.991,60.216,97.062
			l111.017,148.451c1.605,2.146,4.061,3.278,6.549,3.278c1.703,0,3.418-0.531,4.887-1.628c3.613-2.703,4.352-7.823,1.65-11.436
			L73.302,87.278C57.876,66.648,60.196,38.161,77.6,20.239l131.049,175.241c2.703,3.613,7.822,4.353,11.436,1.65
			C223.698,194.427,224.437,189.307,221.735,185.694z"/>
	</g>
</g>
<g>
	<g>
		<path d="M461.588,369.973c-16.019-21.422-39.508-34.211-62.829-34.211c-12.285,0-23.703,3.683-33.022,10.652
			c-13.683,10.231-21.56,26.327-22.178,45.322c-0.598,18.311,5.682,37.232,17.682,53.281c16.02,21.42,39.508,34.209,62.831,34.211
			c12.285,0,23.703-3.683,33.022-10.652C484.76,447.885,486.775,403.653,461.588,369.973z M447.309,455.489
			c-6.472,4.839-14.505,7.398-23.232,7.398c-17.93-0.001-36.991-10.598-49.749-27.658c-9.787-13.088-14.914-28.345-14.437-42.961
			c0.455-13.933,6.008-25.57,15.633-32.769c6.472-4.839,14.506-7.398,23.236-7.398c17.925,0,36.986,10.598,49.743,27.658
			C468.294,406.223,467.758,440.195,447.309,455.489z"/>
	</g>
</g>
<g>
</g>
<g>
</g>
<g>
</g>
<g>
</g>
<g>
</g>
<g>
</g>
<g>
</g>
<g>
</g>
<g>
</g>
<g>
</g>
<g>
</g>
<g>
</g>
<g>
</g>
<g>
</g>
<g>
</g>
</svg>
